<svg width="19" height="22" viewBox="0 0 19 22" fill="none" xmlns="http://www.w3.org/2000/svg">
<path d="M3.5435 3.29241C3.5435 2.41921 3.85462 1.58177 4.4084 0.964325C4.96218 0.346878 5.71326 0 6.49643 0C7.27959 0 8.03068 0.346878 8.58446 0.964325C9.13824 1.58177 9.44935 2.41921 9.44935 3.29241C9.44935 2.41921 9.76046 1.58177 10.3142 0.964325C10.868 0.346878 11.6191 0 12.4023 0C13.1854 0 13.9365 0.346878 14.4903 0.964325C15.0441 1.58177 15.3552 2.41921 15.3552 3.29241V3.30031C15.3552 3.3925 15.3552 3.65589 15.3103 3.95089H17.7175C18.0308 3.95089 18.3312 4.08964 18.5527 4.33662C18.7742 4.5836 18.8987 4.91858 18.8987 5.26786V6.58482C18.8987 6.9341 18.7742 7.26908 18.5527 7.51606C18.3312 7.76303 18.0308 7.90179 17.7175 7.90179H1.18117C0.867903 7.90179 0.567468 7.76303 0.345956 7.51606C0.124444 7.26908 0 6.9341 0 6.58482V5.26786C0 4.91858 0.124444 4.5836 0.345956 4.33662C0.567468 4.08964 0.867903 3.95089 1.18117 3.95089H3.58839C3.55719 3.73581 3.54218 3.51819 3.5435 3.30031V3.29241ZM4.80499 3.95089H8.26818V3.29241C8.26818 3.03299 8.22235 2.77611 8.13331 2.53644C8.04427 2.29677 7.91377 2.079 7.74924 1.89556C7.58472 1.71212 7.3894 1.56661 7.17445 1.46734C6.95949 1.36806 6.7291 1.31696 6.49643 1.31696C6.26376 1.31696 6.03336 1.36806 5.81841 1.46734C5.60345 1.56661 5.40813 1.71212 5.24361 1.89556C5.07908 2.079 4.94858 2.29677 4.85954 2.53644C4.7705 2.77611 4.72467 3.03299 4.72467 3.29241C4.72467 3.40435 4.72704 3.65326 4.77783 3.85871C4.78492 3.89011 4.794 3.92092 4.80499 3.95089V3.95089ZM10.6305 3.95089H14.0937C14.1046 3.92086 14.1136 3.89007 14.1209 3.85871C14.1717 3.65326 14.174 3.40435 14.174 3.29241C14.174 2.76849 13.9874 2.26603 13.6551 1.89556C13.3228 1.52509 12.8722 1.31696 12.4023 1.31696C11.9324 1.31696 11.4817 1.52509 11.1494 1.89556C10.8172 2.26603 10.6305 2.76849 10.6305 3.29241V3.95089ZM17.7175 9.21875V19.096C17.7175 19.6199 17.5309 20.1224 17.1986 20.4928C16.8663 20.8633 16.4157 21.0714 15.9458 21.0714H10.6305V9.21875H17.7175ZM2.95292 21.0714C2.48302 21.0714 2.03237 20.8633 1.7001 20.4928C1.36783 20.1224 1.18117 19.6199 1.18117 19.096V9.21875H8.26818V21.0714H2.95292Z" fill="#58FF9B"/>
</svg>
