<svg width="395" height="191" viewBox="0 0 395 191" fill="none" xmlns="http://www.w3.org/2000/svg">
  <g filter="url(#filter0_f_214_3)">
    <path d="M120.92 60.311C133.31 62.7192 138.648 67.6345 138.648 67.6345L152.265 42.1938C152.265 42.1938 127.861 28.3716 96.8646 31.6639C67.6104 34.778 56.4471 52.2421 56.4471 52.2421C56.4471 52.2421 48.3584 63.3262 49.4074 76.7327C49.5658 78.7977 49.9154 80.7441 50.3971 82.565C55.5235 101.837 75.1912 105.433 91.6854 110.533C97.8476 112.439 108.635 114.788 108.457 123.134C108.457 123.134 104.195 138.527 70.8961 130.985C63.9883 129.422 46.7815 120.891 46.7815 120.891L34.0348 146.483C34.0348 146.483 38.9633 150.66 46.8079 153.813C60.7356 159.415 76.2138 160.589 91.0718 159.652C98.5338 159.184 106.002 158.353 113.101 155.944C127.214 151.155 139.466 140.757 142.283 125.542C144.48 113.686 142.342 99.7322 131.931 92.3824C124.621 87.223 115.648 85.8507 107.104 83.9835C106.306 83.812 105.508 83.6338 104.722 83.4293C100.401 82.3341 91.9625 79.187 88.149 76.8778C85.5429 75.301 80.7926 71.0586 85.8332 64.9294C85.8464 64.936 93.1303 54.9075 120.92 60.311Z" fill="#1F96FF" />
    <path d="M164.306 34.2368L159.49 60.8321H207.66L181.064 84.498L177.086 106.904C177.086 106.904 196.147 106.904 196.773 106.904C197.09 106.904 208.966 107.293 208.293 119.05C207.877 126.38 198.238 129.732 198.238 129.732C198.238 129.732 189.232 134.132 168.08 128.683C168.08 128.683 161.588 126.38 153.42 121.564C153.42 121.564 137.084 145.23 137.711 145.23C138.014 145.23 140.436 150.673 157.603 156.327C170.396 160.536 187.761 159.943 187.761 159.943C187.761 159.943 205.97 158.61 218.539 152.17C231.299 145.632 236.755 135.821 236.769 135.802C242.113 126.182 245.411 115.943 241.657 104.984C239.566 98.8744 235.522 93.4577 230.296 89.664C226.549 86.9391 221.878 85.6724 217.497 84.2803L248.704 56.4248L253.52 34.2236H164.306V34.2368Z" fill="#1F96FF" />
    <path d="M342.411 37.2322C317.425 22.8031 279.277 33.4781 261.787 68.7493C244.93 102.721 248.216 139.028 273.201 153.457C298.186 167.88 333.471 158.537 352.155 126.182C370.833 93.8205 367.396 51.6547 342.411 37.2322ZM326.187 100.214C320.374 119.677 309.059 133.525 298.371 130.339C287.689 127.145 283.737 108.777 289.55 89.3077C295.363 69.838 307.964 58.2788 318.646 61.4655C329.334 64.6588 332 80.7439 326.187 100.214Z" fill="#1F96FF" />
  </g>
  <path d="M120.92 60.311C133.31 62.7192 138.648 67.6345 138.648 67.6345L152.265 42.1938C152.265 42.1938 127.861 28.3716 96.8646 31.6639C67.6104 34.778 56.4471 52.2421 56.4471 52.2421C56.4471 52.2421 48.3584 63.3262 49.4074 76.7327C49.5658 78.7977 49.9154 80.7441 50.3971 82.565C55.5235 101.837 75.1912 105.433 91.6854 110.533C97.8476 112.439 108.635 114.788 108.457 123.134C108.457 123.134 104.195 138.527 70.8961 130.985C63.9883 129.422 46.7815 120.891 46.7815 120.891L34.0348 146.483C34.0348 146.483 38.9633 150.66 46.8079 153.813C60.7356 159.415 76.2138 160.589 91.0718 159.652C98.5338 159.184 106.002 158.353 113.101 155.944C127.214 151.155 139.466 140.757 142.283 125.542C144.48 113.686 142.342 99.7322 131.931 92.3824C124.621 87.223 115.648 85.8507 107.104 83.9835C106.306 83.812 105.508 83.6338 104.722 83.4293C100.401 82.3341 91.9625 79.187 88.149 76.8778C85.5429 75.301 80.7926 71.0586 85.8332 64.9294C85.8464 64.936 93.1303 54.9075 120.92 60.311Z" fill="#1F96FF" />
  <path d="M164.306 34.2368L159.49 60.8321H207.66L181.064 84.498L177.086 106.904C177.086 106.904 196.147 106.904 196.773 106.904C197.09 106.904 208.966 107.293 208.293 119.05C207.877 126.38 198.238 129.732 198.238 129.732C198.238 129.732 189.232 134.132 168.08 128.683C168.08 128.683 161.588 126.38 153.42 121.564C153.42 121.564 137.084 145.23 137.711 145.23C138.014 145.23 140.436 150.673 157.603 156.327C170.396 160.536 187.761 159.943 187.761 159.943C187.761 159.943 205.97 158.61 218.539 152.17C231.299 145.632 236.755 135.821 236.769 135.802C242.113 126.182 245.411 115.943 241.657 104.984C239.566 98.8744 235.522 93.4577 230.296 89.664C226.549 86.9391 221.878 85.6724 217.497 84.2803L248.704 56.4248L253.52 34.2236H164.306V34.2368Z" fill="#1F96FF" />
  <path d="M342.411 37.2322C317.425 22.8031 279.277 33.4781 261.787 68.7493C244.93 102.721 248.216 139.028 273.201 153.457C298.186 167.88 333.471 158.537 352.155 126.182C370.833 93.8205 367.396 51.6547 342.411 37.2322ZM326.187 100.214C320.374 119.677 309.059 133.525 298.371 130.339C287.689 127.145 283.737 108.777 289.55 89.3077C295.363 69.838 307.964 58.2788 318.646 61.4655C329.334 64.6588 332 80.7439 326.187 100.214Z" fill="#1F96FF" />
  <g style="mix-blend-mode:soft-light" filter="url(#filter1_f_214_3)">
    <path d="M117.885 60.311C130.275 62.7192 135.613 67.6345 135.613 67.6345L149.231 42.1938C149.231 42.1938 124.826 28.3716 93.8298 31.6639C64.5756 34.778 53.4123 52.2421 53.4123 52.2421C53.4123 52.2421 45.3236 63.3262 46.3726 76.7327C46.531 78.7977 46.8806 80.7441 47.3623 82.565C52.4887 101.837 72.1564 105.433 88.6506 110.533C94.8128 112.439 105.6 114.788 105.422 123.134C105.422 123.134 101.16 138.527 67.8613 130.985C60.9535 129.422 43.7467 120.891 43.7467 120.891L31 146.483C31 146.483 35.9285 150.66 43.7731 153.813C57.7009 159.415 73.179 160.589 88.037 159.652C95.499 159.184 102.968 158.353 110.067 155.944C124.179 151.155 136.431 140.757 139.248 125.542C141.445 113.686 139.308 99.7322 128.896 92.3824C121.586 87.223 112.613 85.8507 104.069 83.9835C103.271 83.812 102.473 83.6338 101.688 83.4293C97.3661 82.3341 88.9277 79.187 85.1142 76.8778C82.5082 75.301 77.7578 71.0586 82.7984 64.9294C82.8116 64.936 90.0955 54.9075 117.885 60.311Z" fill="#7CC2FF" />
    <path d="M161.271 34.2368L156.455 60.8321H204.625L178.029 84.498L174.051 106.904C174.051 106.904 193.112 106.904 193.738 106.904C194.055 106.904 205.931 107.293 205.258 119.05C204.842 126.38 195.203 129.732 195.203 129.732C195.203 129.732 186.197 134.132 165.045 128.683C165.045 128.683 158.553 126.38 150.385 121.564C150.385 121.564 134.049 145.23 134.676 145.23C134.979 145.23 137.401 150.673 154.568 156.327C167.361 160.536 184.726 159.943 184.726 159.943C184.726 159.943 202.936 158.61 215.504 152.17C228.264 145.632 233.72 135.821 233.734 135.802C239.078 126.182 242.377 115.943 238.623 104.984C236.531 98.8744 232.487 93.4577 227.261 89.664C223.514 86.9391 218.843 85.6724 214.462 84.2803L245.669 56.4248L250.485 34.2236H161.271V34.2368Z" fill="#7CC2FF" />
    <path d="M339.376 37.2322C314.39 22.803 276.243 33.4781 258.752 68.7493C241.895 102.721 245.181 139.028 270.166 153.457C295.152 167.88 330.436 158.537 349.121 126.182C367.799 93.8205 364.361 51.6547 339.376 37.2322ZM323.152 100.214C317.34 119.677 306.025 133.525 295.336 130.339C284.655 127.145 280.703 108.777 286.515 89.3077C292.328 69.838 304.929 58.2788 315.611 61.4655C326.299 64.6588 328.965 80.7439 323.152 100.214Z" fill="#7CC2FF" />
  </g>
  <defs>
    <filter id="filter0_f_214_3" x="3.68706" y="0.652271" width="390.69" height="189.738" filterUnits="userSpaceOnUse" color-interpolation-filters="sRGB">
      <feFlood flood-opacity="0" result="BackgroundImageFix" />
      <feBlend mode="normal" in="SourceGraphic" in2="BackgroundImageFix" result="shape" />
      <feGaussianBlur stdDeviation="15.1739" result="effect1_foregroundBlur_214_3" />
    </filter>
    <filter id="filter1_f_214_3" x="0.652271" y="0.652271" width="390.69" height="189.738" filterUnits="userSpaceOnUse" color-interpolation-filters="sRGB">
      <feFlood flood-opacity="0" result="BackgroundImageFix" />
      <feBlend mode="normal" in="SourceGraphic" in2="BackgroundImageFix" result="shape" />
      <feGaussianBlur stdDeviation="15.1739" result="effect1_foregroundBlur_214_3" />
    </filter>
  </defs>
</svg>