<?xml version="1.0" standalone="no"?>
<!DOCTYPE svg PUBLIC "-//W3C//DTD SVG 20010904//EN"
 "http://www.w3.org/TR/2001/REC-SVG-20010904/DTD/svg10.dtd">
<svg version="1.0" xmlns="http://www.w3.org/2000/svg"
 width="330.000000pt" height="330.000000pt" viewBox="0 0 330.000000 330.000000"
 preserveAspectRatio="xMidYMid meet">
<metadata>
Created by potrace 1.14, written by Peter Selinger 2001-2017
</metadata>
<g transform="translate(0.000000,330.000000) scale(0.100000,-0.100000)"
fill="#000000" stroke="none">
<path d="M595 2290 c-202 -37 -361 -147 -416 -288 -31 -80 -31 -188 0 -259 46
-105 136 -161 361 -228 162 -47 199 -71 200 -126 0 -54 -69 -98 -168 -106
-104 -8 -202 11 -332 67 -63 27 -115 48 -117 47 -1 -2 -29 -60 -62 -129 l-60
-127 33 -20 c104 -65 237 -101 401 -108 390 -19 634 130 652 396 10 138 -37
235 -141 296 -23 13 -95 37 -161 54 -220 54 -285 89 -285 152 0 41 45 83 104
98 104 26 292 5 391 -44 27 -13 53 -21 56 -17 8 8 129 233 129 239 0 11 -125
58 -210 80 -106 27 -291 38 -375 23z"/>
<path d="M2702 2280 c-103 -27 -185 -74 -270 -154 -239 -226 -328 -628 -197
-887 88 -173 322 -267 530 -214 300 78 511 362 532 715 10 174 -34 321 -127
423 -111 122 -284 165 -468 117z m174 -299 c94 -57 97 -272 8 -472 -96 -214
-241 -271 -320 -126 -92 169 12 514 181 601 40 21 93 20 131 -3z"/>
<path d="M1286 2180 c-9 -49 -19 -110 -23 -135 l-6 -45 237 -2 237 -3 -130
-114 c-87 -77 -132 -123 -135 -140 -3 -14 -10 -55 -16 -91 -6 -36 -14 -75 -17
-87 -5 -23 -4 -23 105 -23 120 0 149 -7 181 -41 29 -31 28 -97 -1 -134 -35
-45 -91 -65 -188 -65 -103 0 -190 20 -271 60 -33 17 -63 28 -68 26 -4 -3 -41
-55 -81 -116 -72 -109 -73 -111 -54 -131 25 -27 144 -84 224 -105 99 -27 319
-25 425 4 175 48 280 127 343 259 34 72 37 85 37 168 0 102 -15 142 -81 209
-35 36 -123 86 -151 86 -7 0 -13 3 -12 8 0 4 69 68 153 142 l153 135 22 101
c11 56 21 106 21 112 0 9 -116 12 -444 12 l-443 0 -17 -90z"/>
</g>
</svg>
